<svg width="647" height="491" viewBox="0 0 647 491" fill="none" xmlns="http://www.w3.org/2000/svg">
<rect x="11.1189" y="11.1447" width="624.975" height="468.731" stroke="#E9E9EC" stroke-width="21.0328"/>
<path d="M199.937 128.78V105.471H215.644V109.534H204.865V115.088H214.836V119.151H204.865V124.717H215.689V128.78H199.937ZM224.319 105.471V128.78H219.471V105.471H224.319ZM228.203 128.78V111.298H233.051V128.78H228.203ZM230.639 109.045C229.918 109.045 229.299 108.806 228.783 108.327C228.275 107.842 228.021 107.261 228.021 106.586C228.021 105.918 228.275 105.346 228.783 104.868C229.299 104.382 229.918 104.139 230.639 104.139C231.359 104.139 231.974 104.382 232.482 104.868C232.998 105.346 233.256 105.918 233.256 106.586C233.256 107.261 232.998 107.842 232.482 108.327C231.974 108.806 231.359 109.045 230.639 109.045ZM236.844 128.78V125.889L245.403 115.293V115.168H237.14V111.298H251.242V114.451L243.206 124.785V124.91H251.538V128.78H236.844ZM260.23 129.11C259.115 129.11 258.121 128.916 257.248 128.529C256.376 128.135 255.685 127.554 255.177 126.788C254.676 126.014 254.426 125.051 254.426 123.897C254.426 122.926 254.604 122.11 254.961 121.45C255.317 120.79 255.803 120.259 256.417 119.857C257.032 119.455 257.73 119.151 258.512 118.946C259.301 118.741 260.128 118.597 260.993 118.514C262.009 118.408 262.829 118.309 263.451 118.218C264.073 118.119 264.525 117.975 264.805 117.785C265.086 117.596 265.227 117.315 265.227 116.943V116.875C265.227 116.154 264.999 115.596 264.544 115.202C264.096 114.807 263.459 114.61 262.632 114.61C261.759 114.61 261.065 114.803 260.549 115.19C260.033 115.57 259.691 116.048 259.525 116.625L255.04 116.26C255.268 115.198 255.716 114.28 256.383 113.506C257.051 112.724 257.912 112.125 258.967 111.708C260.029 111.283 261.258 111.07 262.654 111.07C263.626 111.07 264.555 111.184 265.443 111.412C266.338 111.639 267.131 111.992 267.822 112.47C268.52 112.948 269.07 113.563 269.472 114.314C269.874 115.058 270.075 115.949 270.075 116.989V128.78H265.477V126.356H265.34C265.06 126.902 264.684 127.384 264.214 127.801C263.743 128.211 263.178 128.533 262.518 128.768C261.858 128.996 261.095 129.11 260.23 129.11ZM261.619 125.764C262.332 125.764 262.962 125.623 263.508 125.343C264.054 125.054 264.483 124.667 264.794 124.182C265.105 123.696 265.261 123.146 265.261 122.531V120.676C265.109 120.775 264.9 120.866 264.635 120.949C264.377 121.025 264.085 121.097 263.758 121.166C263.432 121.226 263.106 121.283 262.78 121.336C262.453 121.382 262.157 121.424 261.892 121.462C261.323 121.545 260.826 121.678 260.401 121.86C259.976 122.042 259.646 122.289 259.411 122.6C259.175 122.903 259.058 123.283 259.058 123.738C259.058 124.398 259.297 124.903 259.775 125.252C260.261 125.593 260.875 125.764 261.619 125.764ZM273.928 128.78V105.471H278.776V114.234H278.924C279.137 113.764 279.444 113.286 279.846 112.8C280.256 112.307 280.787 111.897 281.439 111.571C282.1 111.237 282.919 111.07 283.898 111.07C285.172 111.07 286.349 111.404 287.426 112.072C288.503 112.732 289.365 113.73 290.01 115.065C290.655 116.393 290.977 118.059 290.977 120.062C290.977 122.012 290.662 123.658 290.032 125.001C289.41 126.337 288.56 127.35 287.483 128.04C286.413 128.723 285.214 129.064 283.886 129.064C282.946 129.064 282.145 128.909 281.485 128.598C280.832 128.287 280.297 127.896 279.88 127.425C279.463 126.947 279.144 126.466 278.924 125.98H278.708V128.78H273.928ZM278.674 120.039C278.674 121.078 278.818 121.985 279.106 122.759C279.395 123.533 279.812 124.136 280.358 124.569C280.904 124.994 281.568 125.206 282.35 125.206C283.139 125.206 283.807 124.99 284.353 124.557C284.899 124.117 285.313 123.51 285.594 122.736C285.882 121.955 286.026 121.056 286.026 120.039C286.026 119.03 285.886 118.142 285.605 117.376C285.324 116.609 284.911 116.01 284.364 115.577C283.818 115.145 283.147 114.929 282.35 114.929C281.561 114.929 280.893 115.137 280.347 115.555C279.808 115.972 279.395 116.564 279.106 117.33C278.818 118.097 278.674 118.999 278.674 120.039ZM302.179 129.121C300.381 129.121 298.833 128.757 297.536 128.029C296.246 127.293 295.252 126.253 294.554 124.91C293.856 123.56 293.507 121.962 293.507 120.119C293.507 118.32 293.856 116.742 294.554 115.384C295.252 114.026 296.234 112.967 297.501 112.209C298.776 111.45 300.271 111.07 301.986 111.07C303.139 111.07 304.213 111.256 305.207 111.628C306.208 111.992 307.081 112.542 307.824 113.278C308.575 114.014 309.16 114.94 309.577 116.055C309.994 117.163 310.203 118.461 310.203 119.948V121.28H295.441V118.275H305.639C305.639 117.577 305.487 116.958 305.184 116.42C304.88 115.881 304.459 115.46 303.92 115.156C303.389 114.845 302.771 114.69 302.065 114.69C301.329 114.69 300.677 114.86 300.108 115.202C299.546 115.536 299.106 115.987 298.787 116.556C298.469 117.118 298.306 117.744 298.298 118.434V121.291C298.298 122.156 298.457 122.903 298.776 123.533C299.102 124.163 299.561 124.648 300.153 124.99C300.745 125.331 301.447 125.502 302.259 125.502C302.798 125.502 303.291 125.426 303.738 125.274C304.186 125.123 304.569 124.895 304.888 124.591C305.207 124.288 305.449 123.916 305.616 123.476L310.101 123.772C309.873 124.849 309.406 125.79 308.701 126.595C308.003 127.391 307.1 128.013 305.992 128.461C304.892 128.901 303.621 129.121 302.179 129.121ZM322.666 111.298V114.94H312.138V111.298H322.666ZM314.528 107.11H319.376V123.408C319.376 123.855 319.445 124.205 319.581 124.455C319.718 124.698 319.908 124.868 320.15 124.967C320.401 125.066 320.689 125.115 321.015 125.115C321.243 125.115 321.471 125.096 321.698 125.058C321.926 125.013 322.1 124.978 322.222 124.956L322.984 128.564C322.742 128.639 322.4 128.727 321.96 128.825C321.52 128.932 320.985 128.996 320.355 129.019C319.187 129.064 318.162 128.909 317.282 128.552C316.41 128.196 315.731 127.642 315.245 126.891C314.759 126.139 314.52 125.191 314.528 124.045V107.11ZM331.048 118.673V128.78H326.2V105.471H330.911V114.382H331.116C331.511 113.35 332.148 112.542 333.028 111.958C333.909 111.366 335.013 111.07 336.34 111.07C337.554 111.07 338.613 111.336 339.516 111.867C340.426 112.391 341.132 113.146 341.633 114.132C342.141 115.111 342.391 116.283 342.384 117.649V128.78H337.535V118.514C337.543 117.436 337.27 116.598 336.716 115.999C336.17 115.399 335.403 115.099 334.417 115.099C333.757 115.099 333.173 115.24 332.664 115.521C332.163 115.801 331.769 116.211 331.481 116.75C331.2 117.281 331.056 117.922 331.048 118.673ZM353.708 128.78V105.471H362.905C364.672 105.471 366.179 105.808 367.423 106.484C368.667 107.151 369.616 108.081 370.268 109.272C370.928 110.456 371.258 111.822 371.258 113.369C371.258 114.917 370.925 116.283 370.257 117.467C369.589 118.65 368.622 119.572 367.355 120.232C366.095 120.893 364.57 121.223 362.779 121.223H356.918V117.273H361.983C362.931 117.273 363.713 117.11 364.327 116.784C364.949 116.45 365.412 115.991 365.716 115.407C366.027 114.815 366.182 114.136 366.182 113.369C366.182 112.596 366.027 111.92 365.716 111.344C365.412 110.759 364.949 110.308 364.327 109.989C363.705 109.663 362.916 109.5 361.96 109.5H358.637V128.78H353.708ZM374.368 128.78V111.298H379.217V128.78H374.368ZM376.804 109.045C376.083 109.045 375.465 108.806 374.949 108.327C374.441 107.842 374.186 107.261 374.186 106.586C374.186 105.918 374.441 105.346 374.949 104.868C375.465 104.382 376.083 104.139 376.804 104.139C377.525 104.139 378.139 104.382 378.648 104.868C379.164 105.346 379.422 105.918 379.422 106.586C379.422 107.261 379.164 107.842 378.648 108.327C378.139 108.806 377.525 109.045 376.804 109.045ZM388.086 129.11C386.97 129.11 385.977 128.916 385.104 128.529C384.231 128.135 383.541 127.554 383.033 126.788C382.532 126.014 382.281 125.051 382.281 123.897C382.281 122.926 382.46 122.11 382.816 121.45C383.173 120.79 383.658 120.259 384.273 119.857C384.888 119.455 385.586 119.151 386.367 118.946C387.156 118.741 387.983 118.597 388.848 118.514C389.865 118.408 390.685 118.309 391.307 118.218C391.929 118.119 392.38 117.975 392.661 117.785C392.942 117.596 393.082 117.315 393.082 116.943V116.875C393.082 116.154 392.855 115.596 392.399 115.202C391.952 114.807 391.314 114.61 390.487 114.61C389.615 114.61 388.92 114.803 388.405 115.19C387.889 115.57 387.547 116.048 387.38 116.625L382.896 116.26C383.124 115.198 383.571 114.28 384.239 113.506C384.907 112.724 385.768 112.125 386.823 111.708C387.885 111.283 389.114 111.07 390.51 111.07C391.481 111.07 392.411 111.184 393.299 111.412C394.194 111.639 394.987 111.992 395.677 112.47C396.375 112.948 396.925 113.563 397.328 114.314C397.73 115.058 397.931 115.949 397.931 116.989V128.78H393.333V126.356H393.196C392.915 126.902 392.54 127.384 392.069 127.801C391.599 128.211 391.034 128.533 390.374 128.768C389.713 128.996 388.951 129.11 388.086 129.11ZM389.474 125.764C390.188 125.764 390.817 125.623 391.364 125.343C391.91 125.054 392.339 124.667 392.65 124.182C392.961 123.696 393.116 123.146 393.116 122.531V120.676C392.965 120.775 392.756 120.866 392.49 120.949C392.232 121.025 391.94 121.097 391.614 121.166C391.288 121.226 390.962 121.283 390.635 121.336C390.309 121.382 390.013 121.424 389.748 121.462C389.178 121.545 388.681 121.678 388.257 121.86C387.832 122.042 387.502 122.289 387.266 122.6C387.031 122.903 386.914 123.283 386.914 123.738C386.914 124.398 387.153 124.903 387.631 125.252C388.116 125.593 388.731 125.764 389.474 125.764ZM409.591 129.121C407.8 129.121 406.26 128.742 404.97 127.983C403.688 127.217 402.701 126.155 402.011 124.796C401.328 123.438 400.987 121.875 400.987 120.107C400.987 118.317 401.332 116.746 402.022 115.395C402.72 114.037 403.711 112.979 404.993 112.22C406.275 111.454 407.8 111.07 409.568 111.07C411.093 111.07 412.429 111.347 413.574 111.901C414.72 112.455 415.627 113.233 416.295 114.234C416.962 115.236 417.33 116.412 417.399 117.763H412.823C412.694 116.89 412.353 116.188 411.799 115.657C411.253 115.118 410.536 114.849 409.648 114.849C408.897 114.849 408.24 115.054 407.679 115.464C407.125 115.866 406.693 116.454 406.381 117.228C406.07 118.002 405.915 118.939 405.915 120.039C405.915 121.154 406.067 122.103 406.37 122.884C406.681 123.666 407.117 124.261 407.679 124.671C408.24 125.081 408.897 125.286 409.648 125.286C410.202 125.286 410.699 125.172 411.139 124.944C411.587 124.717 411.955 124.387 412.243 123.954C412.539 123.514 412.732 122.987 412.823 122.372H417.399C417.323 123.708 416.959 124.884 416.306 125.9C415.661 126.91 414.77 127.699 413.631 128.268C412.493 128.837 411.146 129.121 409.591 129.121ZM420.503 128.78V111.298H425.351V128.78H420.503ZM422.939 109.045C422.218 109.045 421.599 108.806 421.083 108.327C420.575 107.842 420.321 107.261 420.321 106.586C420.321 105.918 420.575 105.346 421.083 104.868C421.599 104.382 422.218 104.139 422.939 104.139C423.659 104.139 424.274 104.382 424.782 104.868C425.298 105.346 425.556 105.918 425.556 106.586C425.556 107.261 425.298 107.842 424.782 108.327C424.274 108.806 423.659 109.045 422.939 109.045ZM435.677 129.064C434.349 129.064 433.147 128.723 432.069 128.04C430.999 127.35 430.15 126.337 429.52 125.001C428.898 123.658 428.587 122.012 428.587 120.062C428.587 118.059 428.909 116.393 429.554 115.065C430.199 113.73 431.056 112.732 432.126 112.072C433.204 111.404 434.383 111.07 435.666 111.07C436.645 111.07 437.46 111.237 438.113 111.571C438.773 111.897 439.304 112.307 439.706 112.8C440.116 113.286 440.427 113.764 440.639 114.234H440.787V105.471H445.624V128.78H440.844V125.98H440.639C440.412 126.466 440.089 126.947 439.672 127.425C439.262 127.896 438.727 128.287 438.067 128.598C437.415 128.909 436.618 129.064 435.677 129.064ZM437.214 125.206C437.995 125.206 438.655 124.994 439.194 124.569C439.74 124.136 440.158 123.533 440.446 122.759C440.742 121.985 440.89 121.078 440.89 120.039C440.89 118.999 440.746 118.097 440.457 117.33C440.169 116.564 439.752 115.972 439.205 115.555C438.659 115.137 437.995 114.929 437.214 114.929C436.417 114.929 435.745 115.145 435.199 115.577C434.653 116.01 434.239 116.609 433.959 117.376C433.678 118.142 433.537 119.03 433.537 120.039C433.537 121.056 433.678 121.955 433.959 122.736C434.247 123.51 434.66 124.117 435.199 124.557C435.745 124.99 436.417 125.206 437.214 125.206Z" fill="black"/>
<path d="M225.048 165.564H227.87V180.997C227.87 182.591 227.495 184.013 226.743 185.265C226 186.51 224.949 187.492 223.591 188.213C222.233 188.926 220.639 189.283 218.811 189.283C216.982 189.283 215.389 188.926 214.03 188.213C212.672 187.492 211.618 186.51 210.866 185.265C210.123 184.013 209.751 182.591 209.751 180.997V165.564H212.574V180.77C212.574 181.908 212.824 182.921 213.325 183.808C213.826 184.689 214.539 185.383 215.465 185.891C216.398 186.392 217.513 186.642 218.811 186.642C220.108 186.642 221.223 186.392 222.157 185.891C223.09 185.383 223.803 184.689 224.296 183.808C224.797 182.921 225.048 181.908 225.048 180.77V165.564ZM236.329 165.564V188.873H233.507V165.564H236.329ZM249.865 164.471L242.353 192.379H239.895L247.406 164.471H249.865ZM268.709 165.564H271.532V180.997C271.532 182.591 271.156 184.013 270.405 185.265C269.662 186.51 268.611 187.492 267.253 188.213C265.894 188.926 264.301 189.283 262.472 189.283C260.644 189.283 259.05 188.926 257.692 188.213C256.334 187.492 255.279 186.51 254.528 185.265C253.785 184.013 253.413 182.591 253.413 180.997V165.564H256.235V180.77C256.235 181.908 256.486 182.921 256.987 183.808C257.487 184.689 258.201 185.383 259.126 185.891C260.06 186.392 261.175 186.642 262.472 186.642C263.77 186.642 264.885 186.392 265.819 185.891C266.752 185.383 267.465 184.689 267.958 183.808C268.459 182.921 268.709 181.908 268.709 180.77V165.564ZM278.534 165.564L284.544 175.261H284.726L290.735 165.564H294.059L286.729 177.219L294.059 188.873H290.735L284.726 179.358H284.544L278.534 188.873H275.211L282.723 177.219L275.211 165.564H278.534ZM313.939 188.873H306.746V165.564H314.258C316.519 165.564 318.454 166.031 320.062 166.964C321.671 167.89 322.904 169.221 323.761 170.959C324.619 172.689 325.047 174.76 325.047 177.173C325.047 179.601 324.615 181.691 323.75 183.444C322.885 185.189 321.625 186.532 319.971 187.473C318.317 188.406 316.306 188.873 313.939 188.873ZM309.569 186.369H313.757C315.684 186.369 317.281 185.997 318.549 185.254C319.816 184.51 320.76 183.452 321.383 182.078C322.005 180.705 322.316 179.07 322.316 177.173C322.316 175.291 322.009 173.671 321.394 172.313C320.779 170.947 319.861 169.9 318.64 169.172C317.418 168.436 315.897 168.068 314.076 168.068H309.569V186.369ZM336.747 189.237C335.063 189.237 333.61 188.866 332.388 188.122C331.174 187.371 330.237 186.324 329.577 184.981C328.925 183.63 328.598 182.059 328.598 180.269C328.598 178.478 328.925 176.9 329.577 175.534C330.237 174.161 331.155 173.091 332.331 172.325C333.515 171.551 334.896 171.164 336.474 171.164C337.385 171.164 338.284 171.315 339.172 171.619C340.059 171.922 340.868 172.416 341.596 173.099C342.324 173.774 342.905 174.669 343.337 175.785C343.77 176.9 343.986 178.273 343.986 179.905V181.043H330.51V178.721H341.254C341.254 177.735 341.057 176.854 340.663 176.08C340.276 175.306 339.722 174.696 339.001 174.248C338.288 173.8 337.445 173.577 336.474 173.577C335.404 173.577 334.479 173.842 333.697 174.373C332.923 174.897 332.328 175.58 331.91 176.422C331.493 177.264 331.284 178.167 331.284 179.131V180.679C331.284 181.999 331.512 183.118 331.967 184.036C332.43 184.947 333.071 185.641 333.891 186.119C334.71 186.589 335.662 186.824 336.747 186.824C337.453 186.824 338.09 186.726 338.66 186.529C339.236 186.324 339.733 186.02 340.15 185.618C340.568 185.208 340.89 184.7 341.118 184.093L343.713 184.821C343.44 185.701 342.981 186.475 342.336 187.143C341.691 187.803 340.894 188.319 339.946 188.691C338.997 189.055 337.931 189.237 336.747 189.237ZM360.455 175.306L358.042 175.989C357.89 175.587 357.666 175.196 357.371 174.817C357.082 174.43 356.688 174.111 356.187 173.861C355.686 173.611 355.045 173.485 354.263 173.485C353.194 173.485 352.302 173.732 351.589 174.225C350.883 174.711 350.53 175.329 350.53 176.08C350.53 176.748 350.773 177.275 351.259 177.662C351.744 178.049 352.503 178.372 353.535 178.63L356.13 179.267C357.693 179.647 358.858 180.227 359.624 181.009C360.39 181.783 360.774 182.78 360.774 184.002C360.774 185.003 360.485 185.899 359.909 186.688C359.339 187.477 358.543 188.099 357.518 188.554C356.494 189.01 355.303 189.237 353.945 189.237C352.162 189.237 350.686 188.85 349.517 188.076C348.349 187.302 347.609 186.172 347.298 184.685L349.847 184.047C350.09 184.988 350.549 185.694 351.225 186.164C351.907 186.635 352.799 186.87 353.899 186.87C355.151 186.87 356.145 186.604 356.881 186.073C357.625 185.535 357.996 184.89 357.996 184.138C357.996 183.531 357.784 183.023 357.359 182.613C356.934 182.196 356.282 181.885 355.402 181.68L352.488 180.997C350.887 180.618 349.711 180.03 348.96 179.233C348.216 178.429 347.844 177.423 347.844 176.217C347.844 175.231 348.121 174.358 348.675 173.599C349.237 172.841 349.999 172.245 350.963 171.812C351.934 171.38 353.034 171.164 354.263 171.164C355.993 171.164 357.352 171.543 358.338 172.302C359.332 173.061 360.038 174.062 360.455 175.306ZM364.817 188.873V171.391H367.503V188.873H364.817ZM366.183 168.478C365.659 168.478 365.208 168.299 364.828 167.943C364.456 167.586 364.27 167.157 364.27 166.657C364.27 166.156 364.456 165.727 364.828 165.371C365.208 165.014 365.659 164.836 366.183 164.836C366.706 164.836 367.154 165.014 367.526 165.371C367.905 165.727 368.095 166.156 368.095 166.657C368.095 167.157 367.905 167.586 367.526 167.943C367.154 168.299 366.706 168.478 366.183 168.478ZM379.479 195.793C378.181 195.793 377.066 195.626 376.133 195.292C375.199 194.966 374.422 194.533 373.8 193.995C373.185 193.464 372.696 192.895 372.331 192.288L374.471 190.785C374.714 191.104 375.021 191.468 375.393 191.878C375.765 192.295 376.273 192.656 376.918 192.959C377.571 193.27 378.424 193.426 379.479 193.426C380.89 193.426 382.055 193.084 382.973 192.401C383.891 191.718 384.35 190.649 384.35 189.192V185.641H384.122C383.925 185.959 383.644 186.354 383.28 186.824C382.924 187.287 382.408 187.701 381.732 188.065C381.065 188.422 380.162 188.6 379.024 188.6C377.612 188.6 376.345 188.266 375.222 187.598C374.107 186.931 373.223 185.959 372.57 184.685C371.925 183.41 371.603 181.862 371.603 180.041C371.603 178.25 371.918 176.691 372.548 175.363C373.177 174.028 374.054 172.996 375.177 172.268C376.3 171.532 377.597 171.164 379.069 171.164C380.207 171.164 381.11 171.353 381.778 171.733C382.453 172.105 382.969 172.529 383.326 173.007C383.69 173.478 383.971 173.865 384.168 174.168H384.441V171.391H387.036V189.374C387.036 190.876 386.695 192.098 386.012 193.039C385.336 193.987 384.426 194.681 383.28 195.121C382.142 195.569 380.875 195.793 379.479 195.793ZM379.388 186.187C380.465 186.187 381.376 185.941 382.119 185.447C382.863 184.954 383.428 184.245 383.815 183.319C384.202 182.393 384.396 181.286 384.396 179.996C384.396 178.736 384.206 177.625 383.827 176.661C383.447 175.697 382.886 174.942 382.142 174.396C381.399 173.85 380.48 173.577 379.388 173.577C378.25 173.577 377.301 173.865 376.542 174.442C375.791 175.018 375.226 175.792 374.847 176.763C374.475 177.735 374.289 178.812 374.289 179.996C374.289 181.21 374.479 182.283 374.858 183.217C375.245 184.142 375.814 184.871 376.565 185.402C377.324 185.925 378.265 186.187 379.388 186.187ZM394.639 178.357V188.873H391.953V171.391H394.548V174.123H394.775C395.185 173.235 395.807 172.522 396.642 171.983C397.477 171.437 398.554 171.164 399.874 171.164C401.058 171.164 402.094 171.406 402.981 171.892C403.869 172.37 404.56 173.099 405.053 174.077C405.546 175.049 405.793 176.278 405.793 177.765V188.873H403.107V177.947C403.107 176.574 402.75 175.504 402.037 174.737C401.324 173.963 400.345 173.577 399.1 173.577C398.243 173.577 397.477 173.762 396.801 174.134C396.134 174.506 395.606 175.049 395.219 175.762C394.832 176.475 394.639 177.34 394.639 178.357ZM418.03 189.237C416.346 189.237 414.893 188.866 413.671 188.122C412.457 187.371 411.52 186.324 410.86 184.981C410.208 183.63 409.881 182.059 409.881 180.269C409.881 178.478 410.208 176.9 410.86 175.534C411.52 174.161 412.438 173.091 413.614 172.325C414.798 171.551 416.179 171.164 417.757 171.164C418.668 171.164 419.567 171.315 420.455 171.619C421.342 171.922 422.151 172.416 422.879 173.099C423.607 173.774 424.188 174.669 424.62 175.785C425.053 176.9 425.269 178.273 425.269 179.905V181.043H411.793V178.721H422.538C422.538 177.735 422.34 176.854 421.946 176.08C421.559 175.306 421.005 174.696 420.284 174.248C419.571 173.8 418.729 173.577 417.757 173.577C416.687 173.577 415.762 173.842 414.98 174.373C414.206 174.897 413.611 175.58 413.193 176.422C412.776 177.264 412.567 178.167 412.567 179.131V180.679C412.567 181.999 412.795 183.118 413.25 184.036C413.713 184.947 414.354 185.641 415.174 186.119C415.993 186.589 416.945 186.824 418.03 186.824C418.736 186.824 419.373 186.726 419.943 186.529C420.519 186.324 421.016 186.02 421.434 185.618C421.851 185.208 422.173 184.7 422.401 184.093L424.996 184.821C424.723 185.701 424.264 186.475 423.619 187.143C422.974 187.803 422.177 188.319 421.229 188.691C420.28 189.055 419.214 189.237 418.03 189.237ZM429.355 188.873V171.391H431.95V174.032H432.132C432.451 173.167 433.027 172.465 433.862 171.926C434.697 171.387 435.637 171.118 436.685 171.118C436.882 171.118 437.128 171.122 437.424 171.13C437.72 171.137 437.944 171.148 438.096 171.164V173.895C438.005 173.872 437.796 173.838 437.47 173.793C437.151 173.74 436.814 173.713 436.457 173.713C435.607 173.713 434.848 173.891 434.181 174.248C433.521 174.597 432.997 175.083 432.61 175.705C432.231 176.319 432.041 177.021 432.041 177.81V188.873H429.355Z" fill="#9292A3"/>
<path d="M129.621 257.98V234.671H132.444V255.477H143.279V257.98H129.621ZM154.387 258.345C152.809 258.345 151.424 257.969 150.233 257.218C149.049 256.467 148.123 255.416 147.456 254.065C146.796 252.715 146.466 251.136 146.466 249.331C146.466 247.51 146.796 245.92 147.456 244.562C148.123 243.204 149.049 242.149 150.233 241.398C151.424 240.647 152.809 240.271 154.387 240.271C155.965 240.271 157.346 240.647 158.53 241.398C159.721 242.149 160.647 243.204 161.307 244.562C161.975 245.92 162.308 247.51 162.308 249.331C162.308 251.136 161.975 252.715 161.307 254.065C160.647 255.416 159.721 256.467 158.53 257.218C157.346 257.969 155.965 258.345 154.387 258.345ZM154.387 255.932C155.586 255.932 156.572 255.624 157.346 255.01C158.12 254.395 158.693 253.587 159.065 252.586C159.436 251.584 159.622 250.499 159.622 249.331C159.622 248.162 159.436 247.073 159.065 246.064C158.693 245.055 158.12 244.239 157.346 243.617C156.572 242.995 155.586 242.684 154.387 242.684C153.188 242.684 152.202 242.995 151.428 243.617C150.654 244.239 150.081 245.055 149.709 246.064C149.337 247.073 149.152 248.162 149.152 249.331C149.152 250.499 149.337 251.584 149.709 252.586C150.081 253.587 150.654 254.395 151.428 255.01C152.202 255.624 153.188 255.932 154.387 255.932ZM166.409 257.98V240.499H169.003V243.139H169.186C169.504 242.274 170.081 241.572 170.916 241.034C171.75 240.495 172.691 240.225 173.738 240.225C173.935 240.225 174.182 240.229 174.478 240.237C174.774 240.244 174.998 240.256 175.149 240.271V243.002C175.058 242.98 174.85 242.946 174.523 242.9C174.205 242.847 173.867 242.82 173.511 242.82C172.661 242.82 171.902 242.999 171.234 243.355C170.574 243.704 170.051 244.19 169.664 244.812C169.284 245.427 169.095 246.129 169.095 246.918V257.98H166.409ZM185.131 258.345C183.446 258.345 181.993 257.973 180.772 257.229C179.558 256.478 178.621 255.431 177.961 254.088C177.308 252.737 176.982 251.167 176.982 249.376C176.982 247.585 177.308 246.007 177.961 244.641C178.621 243.268 179.539 242.198 180.715 241.432C181.899 240.658 183.28 240.271 184.858 240.271C185.768 240.271 186.667 240.423 187.555 240.726C188.443 241.03 189.251 241.523 189.979 242.206C190.708 242.881 191.288 243.776 191.721 244.892C192.153 246.007 192.369 247.381 192.369 249.012V250.15H178.894V247.828H189.638C189.638 246.842 189.441 245.962 189.046 245.188C188.659 244.414 188.105 243.803 187.384 243.355C186.671 242.908 185.829 242.684 184.858 242.684C183.788 242.684 182.862 242.949 182.081 243.481C181.307 244.004 180.711 244.687 180.294 245.529C179.877 246.371 179.668 247.274 179.668 248.238V249.786C179.668 251.106 179.895 252.225 180.351 253.143C180.814 254.054 181.455 254.748 182.274 255.226C183.094 255.697 184.046 255.932 185.131 255.932C185.837 255.932 186.474 255.833 187.043 255.636C187.62 255.431 188.117 255.127 188.534 254.725C188.951 254.316 189.274 253.807 189.501 253.2L192.096 253.929C191.823 254.809 191.364 255.583 190.719 256.25C190.074 256.911 189.278 257.427 188.329 257.798C187.381 258.163 186.315 258.345 185.131 258.345ZM196.455 257.98V240.499H199.05V243.23H199.278C199.642 242.297 200.23 241.572 201.042 241.056C201.854 240.533 202.829 240.271 203.967 240.271C205.12 240.271 206.08 240.533 206.847 241.056C207.621 241.572 208.224 242.297 208.656 243.23H208.838C209.286 242.327 209.958 241.61 210.853 241.079C211.748 240.54 212.822 240.271 214.074 240.271C215.637 240.271 216.915 240.76 217.909 241.739C218.903 242.71 219.4 244.224 219.4 246.28V257.98H216.714V246.28C216.714 244.99 216.361 244.069 215.656 243.515C214.95 242.961 214.119 242.684 213.163 242.684C211.934 242.684 210.982 243.056 210.307 243.799C209.631 244.535 209.294 245.468 209.294 246.599V257.98H206.562V246.007C206.562 245.013 206.24 244.213 205.595 243.606C204.95 242.991 204.119 242.684 203.102 242.684C202.404 242.684 201.752 242.87 201.145 243.242C200.545 243.613 200.06 244.129 199.688 244.789C199.324 245.442 199.141 246.197 199.141 247.054V257.98H196.455ZM233.325 257.98V240.499H236.011V257.98H233.325ZM234.691 237.585C234.168 237.585 233.716 237.407 233.337 237.05C232.965 236.693 232.779 236.265 232.779 235.764C232.779 235.263 232.965 234.834 233.337 234.478C233.716 234.121 234.168 233.943 234.691 233.943C235.215 233.943 235.662 234.121 236.034 234.478C236.414 234.834 236.603 235.263 236.603 235.764C236.603 236.265 236.414 236.693 236.034 237.05C235.662 237.407 235.215 237.585 234.691 237.585ZM240.931 264.536V240.499H243.526V243.276H243.845C244.042 242.972 244.315 242.585 244.664 242.115C245.021 241.637 245.529 241.212 246.189 240.84C246.857 240.461 247.76 240.271 248.898 240.271C250.37 240.271 251.667 240.639 252.79 241.375C253.913 242.111 254.79 243.154 255.42 244.505C256.049 245.855 256.364 247.449 256.364 249.285C256.364 251.136 256.049 252.741 255.42 254.099C254.79 255.45 253.917 256.497 252.802 257.241C251.686 257.977 250.4 258.345 248.944 258.345C247.821 258.345 246.921 258.159 246.246 257.787C245.571 257.408 245.051 256.979 244.687 256.501C244.323 256.015 244.042 255.613 243.845 255.294H243.617V264.536H240.931ZM243.572 249.24C243.572 250.56 243.765 251.724 244.152 252.734C244.539 253.735 245.104 254.52 245.848 255.09C246.591 255.651 247.502 255.932 248.579 255.932C249.702 255.932 250.639 255.636 251.391 255.044C252.149 254.445 252.718 253.64 253.098 252.631C253.485 251.614 253.678 250.484 253.678 249.24C253.678 248.01 253.488 246.903 253.109 245.916C252.737 244.922 252.172 244.137 251.413 243.56C250.662 242.976 249.717 242.684 248.579 242.684C247.487 242.684 246.569 242.961 245.825 243.515C245.081 244.061 244.52 244.827 244.141 245.814C243.761 246.793 243.572 247.934 243.572 249.24ZM272.844 244.414L270.432 245.097C270.28 244.695 270.056 244.304 269.76 243.924C269.472 243.537 269.077 243.219 268.576 242.968C268.076 242.718 267.434 242.593 266.653 242.593C265.583 242.593 264.692 242.839 263.978 243.333C263.273 243.818 262.92 244.437 262.92 245.188C262.92 245.855 263.163 246.383 263.648 246.77C264.134 247.157 264.893 247.479 265.925 247.737L268.52 248.375C270.083 248.754 271.247 249.334 272.014 250.116C272.78 250.89 273.163 251.888 273.163 253.109C273.163 254.111 272.875 255.006 272.298 255.795C271.729 256.584 270.932 257.206 269.908 257.662C268.884 258.117 267.692 258.345 266.334 258.345C264.551 258.345 263.075 257.958 261.907 257.184C260.738 256.41 259.999 255.279 259.688 253.792L262.237 253.155C262.48 254.096 262.939 254.801 263.614 255.272C264.297 255.742 265.189 255.977 266.289 255.977C267.541 255.977 268.535 255.712 269.271 255.181C270.014 254.642 270.386 253.997 270.386 253.246C270.386 252.639 270.174 252.13 269.749 251.721C269.324 251.303 268.671 250.992 267.791 250.787L264.877 250.104C263.276 249.725 262.1 249.137 261.349 248.34C260.606 247.536 260.234 246.531 260.234 245.324C260.234 244.338 260.511 243.465 261.065 242.707C261.626 241.948 262.389 241.352 263.352 240.92C264.324 240.487 265.424 240.271 266.653 240.271C268.383 240.271 269.741 240.65 270.728 241.409C271.721 242.168 272.427 243.169 272.844 244.414ZM288.224 250.833V240.499H290.91V257.98H288.224V255.021H288.041C287.632 255.909 286.994 256.664 286.129 257.286C285.264 257.901 284.172 258.208 282.852 258.208C281.759 258.208 280.788 257.969 279.938 257.491C279.088 257.005 278.42 256.277 277.935 255.306C277.449 254.327 277.206 253.094 277.206 251.607V240.499H279.892V251.425C279.892 252.699 280.249 253.716 280.962 254.475C281.683 255.234 282.601 255.613 283.717 255.613C284.384 255.613 285.063 255.442 285.754 255.101C286.452 254.759 287.036 254.236 287.507 253.53C287.985 252.825 288.224 251.926 288.224 250.833ZM295.829 257.98V240.499H298.424V243.23H298.652C299.016 242.297 299.604 241.572 300.416 241.056C301.228 240.533 302.203 240.271 303.341 240.271C304.494 240.271 305.454 240.533 306.22 241.056C306.994 241.572 307.598 242.297 308.03 243.23H308.212C308.66 242.327 309.331 241.61 310.227 241.079C311.122 240.54 312.196 240.271 313.448 240.271C315.011 240.271 316.289 240.76 317.283 241.739C318.277 242.71 318.774 244.224 318.774 246.28V257.98H316.088V246.28C316.088 244.99 315.735 244.069 315.03 243.515C314.324 242.961 313.493 242.684 312.537 242.684C311.308 242.684 310.356 243.056 309.68 243.799C309.005 244.535 308.667 245.468 308.667 246.599V257.98H305.936V246.007C305.936 245.013 305.613 244.213 304.968 243.606C304.323 242.991 303.493 242.684 302.476 242.684C301.778 242.684 301.125 242.87 300.518 243.242C299.919 243.613 299.433 244.129 299.061 244.789C298.697 245.442 298.515 246.197 298.515 247.054V257.98H295.829ZM339.3 258.345C337.844 258.345 336.557 257.977 335.442 257.241C334.327 256.497 333.454 255.45 332.824 254.099C332.195 252.741 331.88 251.136 331.88 249.285C331.88 247.449 332.195 245.855 332.824 244.505C333.454 243.154 334.33 242.111 335.453 241.375C336.576 240.639 337.874 240.271 339.346 240.271C340.484 240.271 341.383 240.461 342.043 240.84C342.711 241.212 343.219 241.637 343.568 242.115C343.925 242.585 344.202 242.972 344.399 243.276H344.627V234.671H347.313V257.98H344.718V255.294H344.399C344.202 255.613 343.921 256.015 343.557 256.501C343.193 256.979 342.673 257.408 341.998 257.787C341.322 258.159 340.423 258.345 339.3 258.345ZM339.665 255.932C340.742 255.932 341.653 255.651 342.396 255.09C343.14 254.52 343.705 253.735 344.092 252.734C344.479 251.724 344.672 250.56 344.672 249.24C344.672 247.934 344.483 246.793 344.103 245.814C343.724 244.827 343.162 244.061 342.419 243.515C341.675 242.961 340.757 242.684 339.665 242.684C338.526 242.684 337.578 242.976 336.819 243.56C336.068 244.137 335.503 244.922 335.123 245.916C334.752 246.903 334.566 248.01 334.566 249.24C334.566 250.484 334.755 251.614 335.135 252.631C335.522 253.64 336.091 254.445 336.842 255.044C337.601 255.636 338.542 255.932 339.665 255.932ZM359.707 258.345C358.129 258.345 356.744 257.969 355.553 257.218C354.369 256.467 353.444 255.416 352.776 254.065C352.116 252.715 351.786 251.136 351.786 249.331C351.786 247.51 352.116 245.92 352.776 244.562C353.444 243.204 354.369 242.149 355.553 241.398C356.744 240.647 358.129 240.271 359.707 240.271C361.285 240.271 362.666 240.647 363.85 241.398C365.041 242.149 365.967 243.204 366.627 244.562C367.295 245.92 367.629 247.51 367.629 249.331C367.629 251.136 367.295 252.715 366.627 254.065C365.967 255.416 365.041 256.467 363.85 257.218C362.666 257.969 361.285 258.345 359.707 258.345ZM359.707 255.932C360.906 255.932 361.892 255.624 362.666 255.01C363.44 254.395 364.013 253.587 364.385 252.586C364.757 251.584 364.943 250.499 364.943 249.331C364.943 248.162 364.757 247.073 364.385 246.064C364.013 245.055 363.44 244.239 362.666 243.617C361.892 242.995 360.906 242.684 359.707 242.684C358.508 242.684 357.522 242.995 356.748 243.617C355.974 244.239 355.401 245.055 355.029 246.064C354.658 247.073 354.472 248.162 354.472 249.331C354.472 250.499 354.658 251.584 355.029 252.586C355.401 253.587 355.974 254.395 356.748 255.01C357.522 255.624 358.508 255.932 359.707 255.932ZM374.415 234.671V257.98H371.729V234.671H374.415ZM386.436 258.345C384.858 258.345 383.473 257.969 382.282 257.218C381.099 256.467 380.173 255.416 379.505 254.065C378.845 252.715 378.515 251.136 378.515 249.331C378.515 247.51 378.845 245.92 379.505 244.562C380.173 243.204 381.099 242.149 382.282 241.398C383.473 240.647 384.858 240.271 386.436 240.271C388.015 240.271 389.396 240.647 390.579 241.398C391.77 242.149 392.696 243.204 393.356 244.562C394.024 245.92 394.358 247.51 394.358 249.331C394.358 251.136 394.024 252.715 393.356 254.065C392.696 255.416 391.77 256.467 390.579 257.218C389.396 257.969 388.015 258.345 386.436 258.345ZM386.436 255.932C387.635 255.932 388.622 255.624 389.396 255.01C390.17 254.395 390.742 253.587 391.114 252.586C391.486 251.584 391.672 250.499 391.672 249.331C391.672 248.162 391.486 247.073 391.114 246.064C390.742 245.055 390.17 244.239 389.396 243.617C388.622 242.995 387.635 242.684 386.436 242.684C385.238 242.684 384.251 242.995 383.477 243.617C382.703 244.239 382.13 245.055 381.759 246.064C381.387 247.073 381.201 248.162 381.201 249.331C381.201 250.499 381.387 251.584 381.759 252.586C382.13 253.587 382.703 254.395 383.477 255.01C384.251 255.624 385.238 255.932 386.436 255.932ZM398.458 257.98V240.499H401.053V243.139H401.235C401.554 242.274 402.13 241.572 402.965 241.034C403.8 240.495 404.741 240.225 405.788 240.225C405.985 240.225 406.231 240.229 406.527 240.237C406.823 240.244 407.047 240.256 407.199 240.271V243.002C407.108 242.98 406.899 242.946 406.573 242.9C406.254 242.847 405.917 242.82 405.56 242.82C404.71 242.82 403.951 242.999 403.284 243.355C402.624 243.704 402.1 244.19 401.713 244.812C401.334 245.427 401.144 246.129 401.144 246.918V257.98H398.458ZM431.78 244.414L429.367 245.097C429.215 244.695 428.991 244.304 428.696 243.924C428.407 243.537 428.013 243.219 427.512 242.968C427.011 242.718 426.37 242.593 425.588 242.593C424.519 242.593 423.627 242.839 422.914 243.333C422.208 243.818 421.855 244.437 421.855 245.188C421.855 245.855 422.098 246.383 422.584 246.77C423.069 247.157 423.828 247.479 424.86 247.737L427.455 248.375C429.018 248.754 430.183 249.334 430.949 250.116C431.715 250.89 432.099 251.888 432.099 253.109C432.099 254.111 431.81 255.006 431.234 255.795C430.664 256.584 429.868 257.206 428.843 257.662C427.819 258.117 426.628 258.345 425.27 258.345C423.487 258.345 422.011 257.958 420.842 257.184C419.674 256.41 418.934 255.279 418.623 253.792L421.172 253.155C421.415 254.096 421.874 254.801 422.55 255.272C423.232 255.742 424.124 255.977 425.224 255.977C426.476 255.977 427.47 255.712 428.206 255.181C428.95 254.642 429.321 253.997 429.321 253.246C429.321 252.639 429.109 252.13 428.684 251.721C428.259 251.303 427.607 250.992 426.727 250.787L423.813 250.104C422.212 249.725 421.036 249.137 420.285 248.34C419.541 247.536 419.169 246.531 419.169 245.324C419.169 244.338 419.446 243.465 420 242.707C420.562 241.948 421.324 241.352 422.288 240.92C423.259 240.487 424.359 240.271 425.588 240.271C427.318 240.271 428.677 240.65 429.663 241.409C430.657 242.168 431.363 243.169 431.78 244.414ZM436.142 257.98V240.499H438.828V257.98H436.142ZM437.508 237.585C436.984 237.585 436.533 237.407 436.153 237.05C435.781 236.693 435.595 236.265 435.595 235.764C435.595 235.263 435.781 234.834 436.153 234.478C436.533 234.121 436.984 233.943 437.508 233.943C438.031 233.943 438.479 234.121 438.851 234.478C439.23 234.834 439.42 235.263 439.42 235.764C439.42 236.265 439.23 236.693 438.851 237.05C438.479 237.407 438.031 237.585 437.508 237.585ZM451.35 240.499V242.775H442.291V240.499H451.35ZM444.931 236.31H447.617V252.973C447.617 253.731 447.727 254.3 447.947 254.68C448.175 255.052 448.463 255.302 448.812 255.431C449.169 255.552 449.544 255.613 449.939 255.613C450.235 255.613 450.478 255.598 450.667 255.568C450.857 255.53 451.009 255.499 451.123 255.477L451.669 257.889C451.487 257.958 451.233 258.026 450.906 258.094C450.58 258.17 450.166 258.208 449.666 258.208C448.907 258.208 448.163 258.045 447.435 257.719C446.714 257.392 446.115 256.895 445.637 256.228C445.166 255.56 444.931 254.718 444.931 253.701V236.31ZM469.549 258.39C468.441 258.39 467.436 258.181 466.533 257.764C465.63 257.339 464.913 256.728 464.382 255.932C463.851 255.127 463.585 254.156 463.585 253.018C463.585 252.017 463.782 251.205 464.177 250.583C464.572 249.953 465.099 249.46 465.759 249.103C466.419 248.746 467.148 248.481 467.944 248.306C468.749 248.124 469.557 247.98 470.368 247.874C471.431 247.737 472.292 247.635 472.952 247.566C473.62 247.491 474.105 247.365 474.409 247.191C474.72 247.016 474.875 246.713 474.875 246.28V246.189C474.875 245.066 474.568 244.194 473.954 243.572C473.347 242.949 472.425 242.638 471.188 242.638C469.906 242.638 468.9 242.919 468.172 243.481C467.443 244.042 466.931 244.641 466.635 245.279L464.086 244.368C464.541 243.306 465.148 242.479 465.907 241.887C466.673 241.288 467.508 240.87 468.411 240.635C469.321 240.392 470.217 240.271 471.097 240.271C471.658 240.271 472.303 240.339 473.032 240.476C473.768 240.605 474.477 240.874 475.16 241.284C475.85 241.694 476.423 242.312 476.879 243.139C477.334 243.966 477.561 245.074 477.561 246.462V257.98H474.875V255.613H474.739C474.557 255.992 474.253 256.398 473.828 256.831C473.403 257.263 472.838 257.631 472.133 257.935C471.427 258.238 470.566 258.39 469.549 258.39ZM469.959 255.977C471.021 255.977 471.916 255.769 472.645 255.351C473.381 254.934 473.935 254.395 474.306 253.735C474.686 253.075 474.875 252.381 474.875 251.652V249.194C474.762 249.331 474.511 249.456 474.124 249.57C473.745 249.676 473.305 249.771 472.804 249.854C472.311 249.93 471.829 249.998 471.359 250.059C470.896 250.112 470.52 250.158 470.232 250.196C469.534 250.287 468.881 250.435 468.274 250.639C467.675 250.837 467.189 251.136 466.817 251.539C466.453 251.933 466.271 252.472 466.271 253.155C466.271 254.088 466.616 254.794 467.307 255.272C468.005 255.742 468.889 255.977 469.959 255.977ZM482.464 257.98V240.499H485.059V243.23H485.287C485.651 242.297 486.239 241.572 487.051 241.056C487.863 240.533 488.838 240.271 489.976 240.271C491.129 240.271 492.089 240.533 492.855 241.056C493.629 241.572 494.232 242.297 494.665 243.23H494.847C495.295 242.327 495.966 241.61 496.861 241.079C497.757 240.54 498.83 240.271 500.082 240.271C501.645 240.271 502.924 240.76 503.918 241.739C504.912 242.71 505.409 244.224 505.409 246.28V257.98H502.723V246.28C502.723 244.99 502.37 244.069 501.664 243.515C500.959 242.961 500.128 242.684 499.172 242.684C497.943 242.684 496.99 243.056 496.315 243.799C495.64 244.535 495.302 245.468 495.302 246.599V257.98H492.571V246.007C492.571 245.013 492.248 244.213 491.603 243.606C490.958 242.991 490.127 242.684 489.111 242.684C488.413 242.684 487.76 242.87 487.153 243.242C486.554 243.613 486.068 244.129 485.696 244.789C485.332 245.442 485.15 246.197 485.15 247.054V257.98H482.464ZM517.65 258.345C515.965 258.345 514.512 257.973 513.291 257.229C512.077 256.478 511.139 255.431 510.479 254.088C509.827 252.737 509.501 251.167 509.501 249.376C509.501 247.585 509.827 246.007 510.479 244.641C511.139 243.268 512.058 242.198 513.234 241.432C514.417 240.658 515.798 240.271 517.376 240.271C518.287 240.271 519.186 240.423 520.074 240.726C520.962 241.03 521.77 241.523 522.498 242.206C523.226 242.881 523.807 243.776 524.239 244.892C524.672 246.007 524.888 247.381 524.888 249.012V250.15H511.413V247.828H522.157C522.157 246.842 521.959 245.962 521.565 245.188C521.178 244.414 520.624 243.803 519.903 243.355C519.19 242.908 518.348 242.684 517.376 242.684C516.307 242.684 515.381 242.949 514.599 243.481C513.825 244.004 513.23 244.687 512.813 245.529C512.395 246.371 512.187 247.274 512.187 248.238V249.786C512.187 251.106 512.414 252.225 512.869 253.143C513.332 254.054 513.973 254.748 514.793 255.226C515.612 255.697 516.565 255.932 517.65 255.932C518.355 255.932 518.993 255.833 519.562 255.636C520.138 255.431 520.635 255.127 521.053 254.725C521.47 254.316 521.792 253.807 522.02 253.2L524.615 253.929C524.342 254.809 523.883 255.583 523.238 256.25C522.593 256.911 521.796 257.427 520.848 257.798C519.899 258.163 518.833 258.345 517.65 258.345ZM536.577 240.499V242.775H527.517V240.499H536.577ZM530.158 236.31H532.844V252.973C532.844 253.731 532.954 254.3 533.174 254.68C533.401 255.052 533.69 255.302 534.039 255.431C534.395 255.552 534.771 255.613 535.166 255.613C535.461 255.613 535.704 255.598 535.894 255.568C536.084 255.53 536.235 255.499 536.349 255.477L536.896 257.889C536.713 257.958 536.459 258.026 536.133 258.094C535.807 258.17 535.393 258.208 534.892 258.208C534.134 258.208 533.39 258.045 532.662 257.719C531.941 257.392 531.341 256.895 530.863 256.228C530.393 255.56 530.158 254.718 530.158 253.701V236.31ZM136.359 297.345C134.72 297.345 133.309 296.958 132.125 296.184C130.941 295.41 130.031 294.344 129.393 292.986C128.756 291.627 128.437 290.076 128.437 288.331C128.437 286.555 128.764 284.988 129.416 283.63C130.076 282.264 130.994 281.198 132.17 280.432C133.354 279.658 134.735 279.271 136.313 279.271C137.542 279.271 138.65 279.499 139.637 279.954C140.623 280.409 141.431 281.046 142.061 281.866C142.691 282.685 143.081 283.641 143.233 284.734H140.547C140.342 283.937 139.887 283.232 139.181 282.617C138.483 281.995 137.542 281.684 136.359 281.684C135.312 281.684 134.394 281.957 133.605 282.503C132.823 283.042 132.212 283.805 131.772 284.791C131.34 285.77 131.123 286.919 131.123 288.24C131.123 289.59 131.336 290.766 131.761 291.768C132.193 292.769 132.8 293.547 133.582 294.101C134.371 294.655 135.297 294.932 136.359 294.932C137.057 294.932 137.69 294.81 138.26 294.568C138.829 294.325 139.31 293.976 139.705 293.52C140.1 293.065 140.38 292.519 140.547 291.882H143.233C143.081 292.913 142.706 293.843 142.106 294.67C141.515 295.489 140.729 296.142 139.75 296.628C138.779 297.106 137.649 297.345 136.359 297.345ZM154.262 297.345C152.684 297.345 151.299 296.969 150.108 296.218C148.924 295.467 147.998 294.416 147.33 293.065C146.67 291.715 146.34 290.136 146.34 288.331C146.34 286.51 146.67 284.92 147.33 283.562C147.998 282.204 148.924 281.149 150.108 280.398C151.299 279.647 152.684 279.271 154.262 279.271C155.84 279.271 157.221 279.647 158.405 280.398C159.596 281.149 160.522 282.204 161.182 283.562C161.849 284.92 162.183 286.51 162.183 288.331C162.183 290.136 161.849 291.715 161.182 293.065C160.522 294.416 159.596 295.467 158.405 296.218C157.221 296.969 155.84 297.345 154.262 297.345ZM154.262 294.932C155.461 294.932 156.447 294.624 157.221 294.01C157.995 293.395 158.568 292.587 158.94 291.586C159.311 290.584 159.497 289.499 159.497 288.331C159.497 287.162 159.311 286.073 158.94 285.064C158.568 284.055 157.995 283.239 157.221 282.617C156.447 281.995 155.461 281.684 154.262 281.684C153.063 281.684 152.077 281.995 151.303 282.617C150.529 283.239 149.956 284.055 149.584 285.064C149.212 286.073 149.026 287.162 149.026 288.331C149.026 289.499 149.212 290.584 149.584 291.586C149.956 292.587 150.529 293.395 151.303 294.01C152.077 294.624 153.063 294.932 154.262 294.932ZM168.969 286.464V296.98H166.283V279.499H168.878V282.23H169.106C169.516 281.342 170.138 280.629 170.972 280.09C171.807 279.544 172.885 279.271 174.205 279.271C175.388 279.271 176.424 279.514 177.312 279.999C178.2 280.477 178.89 281.206 179.383 282.185C179.877 283.156 180.123 284.385 180.123 285.872V296.98H177.437V286.054C177.437 284.681 177.08 283.611 176.367 282.845C175.654 282.071 174.675 281.684 173.431 281.684C172.573 281.684 171.807 281.87 171.132 282.242C170.464 282.613 169.937 283.156 169.55 283.869C169.163 284.582 168.969 285.447 168.969 286.464ZM197.414 283.414L195.001 284.097C194.85 283.695 194.626 283.304 194.33 282.924C194.042 282.537 193.647 282.219 193.146 281.968C192.645 281.718 192.004 281.593 191.223 281.593C190.153 281.593 189.261 281.839 188.548 282.333C187.843 282.818 187.49 283.437 187.49 284.188C187.49 284.855 187.733 285.383 188.218 285.77C188.704 286.157 189.462 286.479 190.494 286.737L193.089 287.375C194.652 287.754 195.817 288.334 196.583 289.116C197.35 289.89 197.733 290.888 197.733 292.109C197.733 293.111 197.445 294.006 196.868 294.795C196.299 295.584 195.502 296.206 194.478 296.662C193.454 297.117 192.262 297.345 190.904 297.345C189.121 297.345 187.645 296.958 186.477 296.184C185.308 295.41 184.568 294.279 184.257 292.792L186.807 292.155C187.05 293.096 187.509 293.801 188.184 294.272C188.867 294.742 189.758 294.977 190.859 294.977C192.111 294.977 193.105 294.712 193.841 294.181C194.584 293.642 194.956 292.997 194.956 292.246C194.956 291.639 194.743 291.13 194.319 290.721C193.894 290.303 193.241 289.992 192.361 289.787L189.447 289.104C187.846 288.725 186.67 288.137 185.919 287.34C185.176 286.536 184.804 285.531 184.804 284.324C184.804 283.338 185.081 282.465 185.635 281.707C186.196 280.948 186.959 280.352 187.922 279.92C188.893 279.487 189.994 279.271 191.223 279.271C192.953 279.271 194.311 279.65 195.297 280.409C196.291 281.168 196.997 282.169 197.414 283.414ZM209.106 297.345C207.421 297.345 205.968 296.973 204.747 296.229C203.533 295.478 202.596 294.431 201.936 293.088C201.283 291.737 200.957 290.167 200.957 288.376C200.957 286.585 201.283 285.007 201.936 283.641C202.596 282.268 203.514 281.198 204.69 280.432C205.874 279.658 207.254 279.271 208.833 279.271C209.743 279.271 210.642 279.423 211.53 279.726C212.418 280.03 213.226 280.523 213.954 281.206C214.683 281.881 215.263 282.776 215.696 283.892C216.128 285.007 216.344 286.381 216.344 288.012V289.15H202.869V286.828H213.613C213.613 285.842 213.416 284.962 213.021 284.188C212.634 283.414 212.08 282.803 211.359 282.355C210.646 281.908 209.804 281.684 208.833 281.684C207.763 281.684 206.837 281.949 206.056 282.481C205.282 283.004 204.686 283.687 204.269 284.529C203.851 285.371 203.643 286.274 203.643 287.238V288.786C203.643 290.106 203.87 291.225 204.326 292.143C204.788 293.054 205.43 293.748 206.249 294.226C207.069 294.697 208.021 294.932 209.106 294.932C209.811 294.932 210.449 294.833 211.018 294.636C211.595 294.431 212.092 294.127 212.509 293.725C212.926 293.316 213.249 292.807 213.476 292.2L216.071 292.929C215.798 293.809 215.339 294.583 214.694 295.25C214.049 295.911 213.252 296.427 212.304 296.798C211.356 297.163 210.289 297.345 209.106 297.345ZM227.532 297.345C225.893 297.345 224.482 296.958 223.298 296.184C222.115 295.41 221.204 294.344 220.567 292.986C219.93 291.627 219.611 290.076 219.611 288.331C219.611 286.555 219.937 284.988 220.59 283.63C221.25 282.264 222.168 281.198 223.344 280.432C224.528 279.658 225.909 279.271 227.487 279.271C228.716 279.271 229.824 279.499 230.81 279.954C231.797 280.409 232.605 281.046 233.234 281.866C233.864 282.685 234.255 283.641 234.407 284.734H231.721C231.516 283.937 231.061 283.232 230.355 282.617C229.657 281.995 228.716 281.684 227.532 281.684C226.485 281.684 225.567 281.957 224.778 282.503C223.996 283.042 223.386 283.805 222.946 284.791C222.513 285.77 222.297 286.919 222.297 288.24C222.297 289.59 222.509 290.766 222.934 291.768C223.367 292.769 223.974 293.547 224.755 294.101C225.544 294.655 226.47 294.932 227.532 294.932C228.23 294.932 228.864 294.81 229.433 294.568C230.002 294.325 230.484 293.976 230.878 293.52C231.273 293.065 231.554 292.519 231.721 291.882H234.407C234.255 292.913 233.879 293.843 233.28 294.67C232.688 295.489 231.903 296.142 230.924 296.628C229.953 297.106 228.822 297.345 227.532 297.345ZM245.936 279.499V281.775H236.876V279.499H245.936ZM239.517 275.31H242.203V291.973C242.203 292.731 242.313 293.3 242.533 293.68C242.761 294.052 243.049 294.302 243.398 294.431C243.755 294.552 244.13 294.613 244.525 294.613C244.821 294.613 245.063 294.598 245.253 294.568C245.443 294.53 245.595 294.499 245.708 294.477L246.255 296.889C246.073 296.958 245.818 297.026 245.492 297.094C245.166 297.17 244.752 297.208 244.252 297.208C243.493 297.208 242.749 297.045 242.021 296.719C241.3 296.392 240.701 295.895 240.223 295.228C239.752 294.56 239.517 293.718 239.517 292.701V275.31ZM257.118 297.345C255.434 297.345 253.981 296.973 252.759 296.229C251.545 295.478 250.608 294.431 249.948 293.088C249.295 291.737 248.969 290.167 248.969 288.376C248.969 286.585 249.295 285.007 249.948 283.641C250.608 282.268 251.526 281.198 252.702 280.432C253.886 279.658 255.267 279.271 256.845 279.271C257.756 279.271 258.655 279.423 259.542 279.726C260.43 280.03 261.238 280.523 261.967 281.206C262.695 281.881 263.276 282.776 263.708 283.892C264.141 285.007 264.357 286.381 264.357 288.012V289.15H250.881V286.828H261.625C261.625 285.842 261.428 284.962 261.033 284.188C260.646 283.414 260.093 282.803 259.372 282.355C258.658 281.908 257.816 281.684 256.845 281.684C255.775 281.684 254.85 281.949 254.068 282.481C253.294 283.004 252.698 283.687 252.281 284.529C251.864 285.371 251.655 286.274 251.655 287.238V288.786C251.655 290.106 251.883 291.225 252.338 292.143C252.801 293.054 253.442 293.748 254.261 294.226C255.081 294.697 256.033 294.932 257.118 294.932C257.824 294.932 258.461 294.833 259.03 294.636C259.607 294.431 260.104 294.127 260.521 293.725C260.939 293.316 261.261 292.807 261.489 292.2L264.084 292.929C263.81 293.809 263.351 294.583 262.706 295.25C262.062 295.911 261.265 296.427 260.316 296.798C259.368 297.163 258.302 297.345 257.118 297.345ZM276.045 279.499V281.775H266.986V279.499H276.045ZM269.626 275.31H272.312V291.973C272.312 292.731 272.422 293.3 272.642 293.68C272.87 294.052 273.158 294.302 273.507 294.431C273.864 294.552 274.24 294.613 274.634 294.613C274.93 294.613 275.173 294.598 275.363 294.568C275.552 294.53 275.704 294.499 275.818 294.477L276.364 296.889C276.182 296.958 275.928 297.026 275.602 297.094C275.275 297.17 274.862 297.208 274.361 297.208C273.602 297.208 272.859 297.045 272.13 296.719C271.409 296.392 270.81 295.895 270.332 295.228C269.862 294.56 269.626 293.718 269.626 292.701V275.31ZM291.103 289.833V279.499H293.789V296.98H291.103V294.021H290.921C290.511 294.909 289.874 295.664 289.009 296.286C288.144 296.901 287.051 297.208 285.731 297.208C284.638 297.208 283.667 296.969 282.817 296.491C281.968 296.005 281.3 295.277 280.814 294.306C280.329 293.327 280.086 292.094 280.086 290.607V279.499H282.772V290.425C282.772 291.699 283.128 292.716 283.842 293.475C284.563 294.234 285.481 294.613 286.596 294.613C287.264 294.613 287.943 294.442 288.633 294.101C289.331 293.759 289.916 293.236 290.386 292.53C290.864 291.825 291.103 290.926 291.103 289.833ZM298.709 296.98V279.499H301.304V282.139H301.486C301.804 281.274 302.381 280.572 303.216 280.034C304.05 279.495 304.991 279.225 306.038 279.225C306.236 279.225 306.482 279.229 306.778 279.237C307.074 279.244 307.298 279.256 307.45 279.271V282.002C307.359 281.98 307.15 281.946 306.824 281.9C306.505 281.847 306.167 281.82 305.811 281.82C304.961 281.82 304.202 281.999 303.534 282.355C302.874 282.704 302.351 283.19 301.964 283.812C301.584 284.427 301.395 285.129 301.395 285.918V296.98H298.709ZM310.588 297.163C310.026 297.163 309.545 296.961 309.143 296.559C308.74 296.157 308.539 295.675 308.539 295.114C308.539 294.552 308.74 294.071 309.143 293.668C309.545 293.266 310.026 293.065 310.588 293.065C311.149 293.065 311.631 293.266 312.033 293.668C312.436 294.071 312.637 294.552 312.637 295.114C312.637 295.486 312.542 295.827 312.352 296.138C312.17 296.449 311.923 296.7 311.612 296.889C311.309 297.071 310.967 297.163 310.588 297.163ZM317.821 273.671H321.19L329.111 293.02H329.384L337.306 273.671H340.675V296.98H338.034V279.271H337.807L330.522 296.98H327.973L320.689 279.271H320.461V296.98H317.821V273.671ZM351.114 297.39C350.006 297.39 349.001 297.181 348.098 296.764C347.195 296.339 346.478 295.728 345.947 294.932C345.416 294.127 345.15 293.156 345.15 292.018C345.15 291.017 345.348 290.205 345.742 289.583C346.137 288.953 346.664 288.46 347.324 288.103C347.984 287.746 348.713 287.481 349.509 287.306C350.314 287.124 351.122 286.98 351.934 286.874C352.996 286.737 353.857 286.635 354.517 286.566C355.185 286.491 355.671 286.365 355.974 286.191C356.285 286.016 356.441 285.713 356.441 285.28V285.189C356.441 284.066 356.133 283.194 355.519 282.572C354.912 281.949 353.99 281.638 352.753 281.638C351.471 281.638 350.466 281.919 349.737 282.481C349.009 283.042 348.497 283.641 348.201 284.279L345.651 283.368C346.106 282.306 346.713 281.479 347.472 280.887C348.239 280.288 349.073 279.87 349.976 279.635C350.887 279.392 351.782 279.271 352.662 279.271C353.224 279.271 353.869 279.339 354.597 279.476C355.333 279.605 356.042 279.874 356.725 280.284C357.416 280.694 357.989 281.312 358.444 282.139C358.899 282.966 359.127 284.074 359.127 285.462V296.98H356.441V294.613H356.304C356.122 294.992 355.819 295.398 355.394 295.831C354.969 296.263 354.403 296.631 353.698 296.935C352.992 297.238 352.131 297.39 351.114 297.39ZM351.524 294.977C352.586 294.977 353.482 294.769 354.21 294.351C354.946 293.934 355.5 293.395 355.872 292.735C356.251 292.075 356.441 291.381 356.441 290.652V288.194C356.327 288.331 356.077 288.456 355.69 288.57C355.31 288.676 354.87 288.771 354.369 288.854C353.876 288.93 353.394 288.998 352.924 289.059C352.461 289.112 352.085 289.158 351.797 289.196C351.099 289.287 350.447 289.435 349.84 289.639C349.24 289.837 348.755 290.136 348.383 290.539C348.019 290.933 347.836 291.472 347.836 292.155C347.836 293.088 348.182 293.794 348.872 294.272C349.57 294.742 350.454 294.977 351.524 294.977ZM375.046 289.833V279.499H377.732V296.98H375.046V294.021H374.864C374.455 294.909 373.817 295.664 372.952 296.286C372.087 296.901 370.995 297.208 369.674 297.208C368.582 297.208 367.611 296.969 366.761 296.491C365.911 296.005 365.243 295.277 364.758 294.306C364.272 293.327 364.029 292.094 364.029 290.607V279.499H366.715V290.425C366.715 291.699 367.072 292.716 367.785 293.475C368.506 294.234 369.424 294.613 370.539 294.613C371.207 294.613 371.886 294.442 372.577 294.101C373.275 293.759 373.859 293.236 374.329 292.53C374.807 291.825 375.046 290.926 375.046 289.833ZM382.652 296.98V279.499H385.247V282.139H385.429C385.748 281.274 386.324 280.572 387.159 280.034C387.994 279.495 388.935 279.225 389.982 279.225C390.179 279.225 390.426 279.229 390.721 279.237C391.017 279.244 391.241 279.256 391.393 279.271V282.002C391.302 281.98 391.093 281.946 390.767 281.9C390.448 281.847 390.111 281.82 389.754 281.82C388.904 281.82 388.146 281.999 387.478 282.355C386.818 282.704 386.294 283.19 385.907 283.812C385.528 284.427 385.338 285.129 385.338 285.918V296.98H382.652ZM394.577 296.98V279.499H397.263V296.98H394.577ZM395.943 276.585C395.419 276.585 394.968 276.407 394.588 276.05C394.217 275.693 394.031 275.265 394.031 274.764C394.031 274.263 394.217 273.834 394.588 273.478C394.968 273.121 395.419 272.943 395.943 272.943C396.466 272.943 396.914 273.121 397.286 273.478C397.665 273.834 397.855 274.263 397.855 274.764C397.855 275.265 397.665 275.693 397.286 276.05C396.914 276.407 396.466 276.585 395.943 276.585ZM414.566 283.414L412.153 284.097C412.001 283.695 411.777 283.304 411.481 282.924C411.193 282.537 410.798 282.219 410.297 281.968C409.797 281.718 409.156 281.593 408.374 281.593C407.304 281.593 406.413 281.839 405.699 282.333C404.994 282.818 404.641 283.437 404.641 284.188C404.641 284.855 404.884 285.383 405.369 285.77C405.855 286.157 406.614 286.479 407.646 286.737L410.241 287.375C411.804 287.754 412.968 288.334 413.735 289.116C414.501 289.89 414.884 290.888 414.884 292.109C414.884 293.111 414.596 294.006 414.019 294.795C413.45 295.584 412.653 296.206 411.629 296.662C410.605 297.117 409.414 297.345 408.055 297.345C406.272 297.345 404.796 296.958 403.628 296.184C402.46 295.41 401.72 294.279 401.409 292.792L403.958 292.155C404.201 293.096 404.66 293.801 405.335 294.272C406.018 294.742 406.91 294.977 408.01 294.977C409.262 294.977 410.256 294.712 410.992 294.181C411.735 293.642 412.107 292.997 412.107 292.246C412.107 291.639 411.895 291.13 411.47 290.721C411.045 290.303 410.392 289.992 409.512 289.787L406.599 289.104C404.998 288.725 403.821 288.137 403.07 287.34C402.327 286.536 401.955 285.531 401.955 284.324C401.955 283.338 402.232 282.465 402.786 281.707C403.347 280.948 404.11 280.352 405.073 279.92C406.045 279.487 407.145 279.271 408.374 279.271C410.104 279.271 411.462 279.65 412.449 280.409C413.443 281.168 414.148 282.169 414.566 283.414ZM418.927 296.98V279.499H421.613V296.98H418.927ZM420.293 276.585C419.77 276.585 419.318 276.407 418.939 276.05C418.567 275.693 418.381 275.265 418.381 274.764C418.381 274.263 418.567 273.834 418.939 273.478C419.318 273.121 419.77 272.943 420.293 272.943C420.817 272.943 421.264 273.121 421.636 273.478C422.016 273.834 422.205 274.263 422.205 274.764C422.205 275.265 422.016 275.693 421.636 276.05C421.264 276.407 420.817 276.585 420.293 276.585ZM426.533 296.98V279.499H429.128V282.23H429.356C429.72 281.297 430.308 280.572 431.12 280.056C431.932 279.533 432.907 279.271 434.045 279.271C435.198 279.271 436.158 279.533 436.924 280.056C437.698 280.572 438.301 281.297 438.734 282.23H438.916C439.364 281.327 440.035 280.61 440.93 280.079C441.826 279.54 442.899 279.271 444.151 279.271C445.714 279.271 446.993 279.76 447.987 280.739C448.981 281.71 449.478 283.224 449.478 285.28V296.98H446.792V285.28C446.792 283.99 446.439 283.069 445.733 282.515C445.028 281.961 444.197 281.684 443.241 281.684C442.012 281.684 441.059 282.056 440.384 282.799C439.709 283.535 439.371 284.468 439.371 285.599V296.98H436.64V285.007C436.64 284.013 436.317 283.213 435.672 282.606C435.027 281.991 434.196 281.684 433.18 281.684C432.482 281.684 431.829 281.87 431.222 282.242C430.623 282.613 430.137 283.129 429.765 283.789C429.401 284.442 429.219 285.197 429.219 286.054V296.98H426.533ZM454.389 303.536V279.499H456.984V282.276H457.303C457.5 281.972 457.773 281.585 458.122 281.115C458.479 280.637 458.987 280.212 459.647 279.84C460.315 279.461 461.218 279.271 462.356 279.271C463.828 279.271 465.125 279.639 466.248 280.375C467.371 281.111 468.248 282.154 468.877 283.505C469.507 284.855 469.822 286.449 469.822 288.285C469.822 290.136 469.507 291.741 468.877 293.099C468.248 294.45 467.375 295.497 466.26 296.241C465.144 296.977 463.858 297.345 462.401 297.345C461.279 297.345 460.379 297.159 459.704 296.787C459.029 296.408 458.509 295.979 458.145 295.501C457.781 295.015 457.5 294.613 457.303 294.294H457.075V303.536H454.389ZM457.029 288.24C457.029 289.56 457.223 290.724 457.61 291.734C457.997 292.735 458.562 293.52 459.306 294.09C460.049 294.651 460.96 294.932 462.037 294.932C463.16 294.932 464.097 294.636 464.848 294.044C465.607 293.445 466.176 292.64 466.556 291.631C466.943 290.614 467.136 289.484 467.136 288.24C467.136 287.01 466.946 285.903 466.567 284.916C466.195 283.922 465.63 283.137 464.871 282.56C464.12 281.976 463.175 281.684 462.037 281.684C460.945 281.684 460.027 281.961 459.283 282.515C458.539 283.061 457.978 283.827 457.599 284.814C457.219 285.793 457.029 286.934 457.029 288.24ZM481.249 297.345C479.565 297.345 478.112 296.973 476.89 296.229C475.676 295.478 474.739 294.431 474.079 293.088C473.426 291.737 473.1 290.167 473.1 288.376C473.1 286.585 473.426 285.007 474.079 283.641C474.739 282.268 475.657 281.198 476.833 280.432C478.017 279.658 479.398 279.271 480.976 279.271C481.886 279.271 482.786 279.423 483.673 279.726C484.561 280.03 485.369 280.523 486.098 281.206C486.826 281.881 487.406 282.776 487.839 283.892C488.271 285.007 488.488 286.381 488.488 288.012V289.15H475.012V286.828H485.756C485.756 285.842 485.559 284.962 485.164 284.188C484.777 283.414 484.223 282.803 483.503 282.355C482.789 281.908 481.947 281.684 480.976 281.684C479.906 281.684 478.98 281.949 478.199 282.481C477.425 283.004 476.829 283.687 476.412 284.529C475.995 285.371 475.786 286.274 475.786 287.238V288.786C475.786 290.106 476.014 291.225 476.469 292.143C476.932 293.054 477.573 293.748 478.392 294.226C479.212 294.697 480.164 294.932 481.249 294.932C481.955 294.932 482.592 294.833 483.161 294.636C483.738 294.431 484.235 294.127 484.652 293.725C485.069 293.316 485.392 292.807 485.62 292.2L488.214 292.929C487.941 293.809 487.482 294.583 486.837 295.25C486.192 295.911 485.396 296.427 484.447 296.798C483.499 297.163 482.433 297.345 481.249 297.345ZM492.574 296.98V279.499H495.169V282.139H495.351C495.669 281.274 496.246 280.572 497.081 280.034C497.915 279.495 498.856 279.225 499.903 279.225C500.1 279.225 500.347 279.229 500.643 279.237C500.939 279.244 501.163 279.256 501.314 279.271V282.002C501.223 281.98 501.015 281.946 500.688 281.9C500.37 281.847 500.032 281.82 499.676 281.82C498.826 281.82 498.067 281.999 497.399 282.355C496.739 282.704 496.216 283.19 495.829 283.812C495.449 284.427 495.26 285.129 495.26 285.918V296.98H492.574ZM510.568 297.345C509.111 297.345 507.825 296.977 506.709 296.241C505.594 295.497 504.721 294.45 504.092 293.099C503.462 291.741 503.147 290.136 503.147 288.285C503.147 286.449 503.462 284.855 504.092 283.505C504.721 282.154 505.598 281.111 506.721 280.375C507.844 279.639 509.141 279.271 510.613 279.271C511.751 279.271 512.65 279.461 513.31 279.84C513.978 280.212 514.487 280.637 514.836 281.115C515.192 281.585 515.469 281.972 515.666 282.276H515.894V273.671H518.58V296.98H515.985V294.294H515.666C515.469 294.613 515.188 295.015 514.824 295.501C514.46 295.979 513.94 296.408 513.265 296.787C512.59 297.159 511.69 297.345 510.568 297.345ZM510.932 294.932C512.009 294.932 512.92 294.651 513.663 294.09C514.407 293.52 514.972 292.735 515.359 291.734C515.746 290.724 515.94 289.56 515.94 288.24C515.94 286.934 515.75 285.793 515.37 284.814C514.991 283.827 514.43 283.061 513.686 282.515C512.942 281.961 512.024 281.684 510.932 281.684C509.794 281.684 508.845 281.976 508.086 282.56C507.335 283.137 506.77 283.922 506.391 284.916C506.019 285.903 505.833 287.01 505.833 288.24C505.833 289.484 506.023 290.614 506.402 291.631C506.789 292.64 507.358 293.445 508.109 294.044C508.868 294.636 509.809 294.932 510.932 294.932ZM523.872 296.98V279.499H526.558V296.98H523.872ZM525.238 276.585C524.715 276.585 524.263 276.407 523.884 276.05C523.512 275.693 523.326 275.265 523.326 274.764C523.326 274.263 523.512 273.834 523.884 273.478C524.263 273.121 524.715 272.943 525.238 272.943C525.762 272.943 526.209 273.121 526.581 273.478C526.961 273.834 527.15 274.263 527.15 274.764C527.15 275.265 526.961 275.693 526.581 276.05C526.209 276.407 525.762 276.585 525.238 276.585ZM538.808 297.345C537.123 297.345 535.67 296.973 534.449 296.229C533.235 295.478 532.297 294.431 531.637 293.088C530.985 291.737 530.659 290.167 530.659 288.376C530.659 286.585 530.985 285.007 531.637 283.641C532.297 282.268 533.216 281.198 534.392 280.432C535.575 279.658 536.956 279.271 538.534 279.271C539.445 279.271 540.344 279.423 541.232 279.726C542.12 280.03 542.928 280.523 543.656 281.206C544.384 281.881 544.965 282.776 545.397 283.892C545.83 285.007 546.046 286.381 546.046 288.012V289.15H532.571V286.828H543.315C543.315 285.842 543.117 284.962 542.723 284.188C542.336 283.414 541.782 282.803 541.061 282.355C540.348 281.908 539.506 281.684 538.534 281.684C537.465 281.684 536.539 281.949 535.757 282.481C534.983 283.004 534.388 283.687 533.97 284.529C533.553 285.371 533.345 286.274 533.345 287.238V288.786C533.345 290.106 533.572 291.225 534.027 292.143C534.49 293.054 535.131 293.748 535.951 294.226C536.77 294.697 537.723 294.932 538.808 294.932C539.513 294.932 540.151 294.833 540.72 294.636C541.296 294.431 541.793 294.127 542.211 293.725C542.628 293.316 542.95 292.807 543.178 292.2L545.773 292.929C545.5 293.809 545.041 294.583 544.396 295.25C543.751 295.911 542.954 296.427 542.006 296.798C541.057 297.163 539.991 297.345 538.808 297.345ZM129.257 342.536V318.499H131.852V321.276H132.17C132.368 320.972 132.641 320.585 132.99 320.115C133.347 319.637 133.855 319.212 134.515 318.84C135.183 318.461 136.086 318.271 137.224 318.271C138.696 318.271 139.993 318.639 141.116 319.375C142.239 320.111 143.116 321.154 143.745 322.505C144.375 323.855 144.69 325.449 144.69 327.285C144.69 329.136 144.375 330.741 143.745 332.099C143.116 333.45 142.243 334.497 141.128 335.241C140.012 335.977 138.726 336.345 137.269 336.345C136.146 336.345 135.247 336.159 134.572 335.787C133.897 335.408 133.377 334.979 133.013 334.501C132.648 334.015 132.368 333.613 132.17 333.294H131.943V342.536H129.257ZM131.897 327.24C131.897 328.56 132.091 329.724 132.478 330.734C132.865 331.735 133.43 332.52 134.174 333.09C134.917 333.651 135.828 333.932 136.905 333.932C138.028 333.932 138.965 333.636 139.716 333.044C140.475 332.445 141.044 331.64 141.424 330.631C141.811 329.614 142.004 328.484 142.004 327.24C142.004 326.01 141.814 324.903 141.435 323.916C141.063 322.922 140.498 322.137 139.739 321.56C138.988 320.976 138.043 320.684 136.905 320.684C135.813 320.684 134.894 320.961 134.151 321.515C133.407 322.061 132.846 322.827 132.466 323.814C132.087 324.793 131.897 325.934 131.897 327.24ZM151.473 325.464V335.98H148.787V312.671H151.473V321.23H151.701C152.111 320.327 152.725 319.61 153.545 319.079C154.372 318.54 155.472 318.271 156.845 318.271C158.037 318.271 159.08 318.51 159.975 318.988C160.871 319.458 161.565 320.183 162.058 321.162C162.559 322.133 162.809 323.37 162.809 324.872V335.98H160.123V325.054C160.123 323.666 159.763 322.592 159.042 321.833C158.329 321.067 157.339 320.684 156.071 320.684C155.191 320.684 154.402 320.87 153.704 321.242C153.014 321.613 152.467 322.156 152.065 322.869C151.671 323.582 151.473 324.447 151.473 325.464ZM172.867 336.39C171.76 336.39 170.754 336.181 169.851 335.764C168.948 335.339 168.231 334.728 167.7 333.932C167.169 333.127 166.904 332.156 166.904 331.018C166.904 330.017 167.101 329.205 167.495 328.583C167.89 327.953 168.417 327.46 169.077 327.103C169.738 326.746 170.466 326.481 171.263 326.306C172.067 326.124 172.875 325.98 173.687 325.874C174.749 325.737 175.61 325.635 176.271 325.566C176.938 325.491 177.424 325.365 177.727 325.191C178.038 325.016 178.194 324.713 178.194 324.28V324.189C178.194 323.066 177.887 322.194 177.272 321.572C176.665 320.949 175.743 320.638 174.506 320.638C173.224 320.638 172.219 320.919 171.49 321.481C170.762 322.042 170.25 322.641 169.954 323.279L167.404 322.368C167.86 321.306 168.467 320.479 169.225 319.887C169.992 319.288 170.826 318.87 171.729 318.635C172.64 318.392 173.535 318.271 174.415 318.271C174.977 318.271 175.622 318.339 176.35 318.476C177.086 318.605 177.796 318.874 178.479 319.284C179.169 319.694 179.742 320.312 180.197 321.139C180.652 321.966 180.88 323.074 180.88 324.462V335.98H178.194V333.613H178.057C177.875 333.992 177.572 334.398 177.147 334.831C176.722 335.263 176.157 335.631 175.451 335.935C174.745 336.238 173.884 336.39 172.867 336.39ZM173.277 333.977C174.339 333.977 175.235 333.769 175.963 333.351C176.699 332.934 177.253 332.395 177.625 331.735C178.004 331.075 178.194 330.381 178.194 329.652V327.194C178.08 327.331 177.83 327.456 177.443 327.57C177.063 327.676 176.623 327.771 176.123 327.854C175.629 327.93 175.148 327.998 174.677 328.059C174.214 328.112 173.839 328.158 173.55 328.196C172.852 328.287 172.2 328.435 171.593 328.639C170.993 328.837 170.508 329.136 170.136 329.539C169.772 329.933 169.59 330.472 169.59 331.155C169.59 332.088 169.935 332.794 170.625 333.272C171.323 333.742 172.207 333.977 173.277 333.977ZM185.783 335.98V318.499H188.377V321.139H188.56C188.878 320.274 189.455 319.572 190.29 319.034C191.124 318.495 192.065 318.225 193.112 318.225C193.309 318.225 193.556 318.229 193.852 318.237C194.148 318.244 194.372 318.256 194.523 318.271V321.002C194.432 320.98 194.224 320.946 193.897 320.9C193.579 320.847 193.241 320.82 192.884 320.82C192.035 320.82 191.276 320.999 190.608 321.355C189.948 321.704 189.425 322.19 189.038 322.812C188.658 323.427 188.469 324.129 188.469 324.918V335.98H185.783ZM204.505 336.345C202.82 336.345 201.367 335.973 200.146 335.229C198.932 334.478 197.995 333.431 197.335 332.088C196.682 330.737 196.356 329.167 196.356 327.376C196.356 325.585 196.682 324.007 197.335 322.641C197.995 321.268 198.913 320.198 200.089 319.432C201.273 318.658 202.654 318.271 204.232 318.271C205.142 318.271 206.041 318.423 206.929 318.726C207.817 319.03 208.625 319.523 209.353 320.206C210.082 320.881 210.662 321.776 211.095 322.892C211.527 324.007 211.743 325.381 211.743 327.012V328.15H198.268V325.828H209.012C209.012 324.842 208.815 323.962 208.42 323.188C208.033 322.414 207.479 321.803 206.758 321.355C206.045 320.908 205.203 320.684 204.232 320.684C203.162 320.684 202.236 320.949 201.455 321.481C200.681 322.004 200.085 322.687 199.668 323.529C199.25 324.371 199.042 325.274 199.042 326.238V327.786C199.042 329.106 199.269 330.225 199.725 331.143C200.188 332.054 200.829 332.748 201.648 333.226C202.468 333.697 203.42 333.932 204.505 333.932C205.211 333.932 205.848 333.833 206.417 333.636C206.994 333.431 207.491 333.127 207.908 332.725C208.325 332.316 208.648 331.807 208.875 331.2L211.47 331.929C211.197 332.809 210.738 333.583 210.093 334.25C209.448 334.911 208.652 335.427 207.703 335.798C206.755 336.163 205.689 336.345 204.505 336.345ZM223.432 318.499V320.775H214.373V318.499H223.432ZM217.013 314.31H219.699V330.973C219.699 331.731 219.809 332.3 220.029 332.68C220.257 333.052 220.545 333.302 220.894 333.431C221.251 333.552 221.626 333.613 222.021 333.613C222.317 333.613 222.56 333.598 222.749 333.568C222.939 333.53 223.091 333.499 223.205 333.477L223.751 335.889C223.569 335.958 223.315 336.026 222.988 336.094C222.662 336.17 222.248 336.208 221.748 336.208C220.989 336.208 220.245 336.045 219.517 335.719C218.796 335.392 218.197 334.895 217.719 334.228C217.248 333.56 217.013 332.718 217.013 331.701V314.31ZM227.473 335.98V318.499H230.067V321.139H230.25C230.568 320.274 231.145 319.572 231.98 319.034C232.814 318.495 233.755 318.225 234.802 318.225C234.999 318.225 235.246 318.229 235.542 318.237C235.838 318.244 236.062 318.256 236.213 318.271V321.002C236.122 320.98 235.914 320.946 235.587 320.9C235.269 320.847 234.931 320.82 234.575 320.82C233.725 320.82 232.966 320.999 232.298 321.355C231.638 321.704 231.115 322.19 230.728 322.812C230.348 323.427 230.159 324.129 230.159 324.918V335.98H227.473ZM244.542 336.39C243.434 336.39 242.429 336.181 241.526 335.764C240.623 335.339 239.906 334.728 239.375 333.932C238.843 333.127 238.578 332.156 238.578 331.018C238.578 330.017 238.775 329.205 239.17 328.583C239.564 327.953 240.092 327.46 240.752 327.103C241.412 326.746 242.14 326.481 242.937 326.306C243.741 326.124 244.549 325.98 245.361 325.874C246.424 325.737 247.285 325.635 247.945 325.566C248.613 325.491 249.098 325.365 249.402 325.191C249.713 325.016 249.868 324.713 249.868 324.28V324.189C249.868 323.066 249.561 322.194 248.946 321.572C248.339 320.949 247.417 320.638 246.181 320.638C244.898 320.638 243.893 320.919 243.165 321.481C242.436 322.042 241.924 322.641 241.628 323.279L239.079 322.368C239.534 321.306 240.141 320.479 240.9 319.887C241.666 319.288 242.501 318.87 243.404 318.635C244.314 318.392 245.209 318.271 246.09 318.271C246.651 318.271 247.296 318.339 248.024 318.476C248.76 318.605 249.47 318.874 250.153 319.284C250.843 319.694 251.416 320.312 251.871 321.139C252.327 321.966 252.554 323.074 252.554 324.462V335.98H249.868V333.613H249.732C249.55 333.992 249.246 334.398 248.821 334.831C248.396 335.263 247.831 335.631 247.125 335.935C246.42 336.238 245.559 336.39 244.542 336.39ZM244.952 333.977C246.014 333.977 246.909 333.769 247.638 333.351C248.374 332.934 248.927 332.395 249.299 331.735C249.679 331.075 249.868 330.381 249.868 329.652V327.194C249.754 327.331 249.504 327.456 249.117 327.57C248.738 327.676 248.298 327.771 247.797 327.854C247.304 327.93 246.822 327.998 246.351 328.059C245.889 328.112 245.513 328.158 245.225 328.196C244.527 328.287 243.874 328.435 243.267 328.639C242.668 328.837 242.182 329.136 241.81 329.539C241.446 329.933 241.264 330.472 241.264 331.155C241.264 332.088 241.609 332.794 242.3 333.272C242.998 333.742 243.882 333.977 244.952 333.977ZM266.471 342.536V318.499H269.066V321.276H269.384C269.582 320.972 269.855 320.585 270.204 320.115C270.561 319.637 271.069 319.212 271.729 318.84C272.397 318.461 273.3 318.271 274.438 318.271C275.91 318.271 277.207 318.639 278.33 319.375C279.453 320.111 280.33 321.154 280.959 322.505C281.589 323.855 281.904 325.449 281.904 327.285C281.904 329.136 281.589 330.741 280.959 332.099C280.33 333.45 279.457 334.497 278.342 335.241C277.226 335.977 275.94 336.345 274.483 336.345C273.36 336.345 272.461 336.159 271.786 335.787C271.111 335.408 270.591 334.979 270.227 334.501C269.863 334.015 269.582 333.613 269.384 333.294H269.157V342.536H266.471ZM269.111 327.24C269.111 328.56 269.305 329.724 269.692 330.734C270.079 331.735 270.644 332.52 271.388 333.09C272.131 333.651 273.042 333.932 274.119 333.932C275.242 333.932 276.179 333.636 276.93 333.044C277.689 332.445 278.258 331.64 278.638 330.631C279.025 329.614 279.218 328.484 279.218 327.24C279.218 326.01 279.028 324.903 278.649 323.916C278.277 322.922 277.712 322.137 276.953 321.56C276.202 320.976 275.257 320.684 274.119 320.684C273.027 320.684 272.108 320.961 271.365 321.515C270.621 322.061 270.06 322.827 269.68 323.814C269.301 324.793 269.111 325.934 269.111 327.24ZM286.001 335.98V318.499H288.596V321.139H288.778C289.097 320.274 289.674 319.572 290.508 319.034C291.343 318.495 292.284 318.225 293.331 318.225C293.528 318.225 293.775 318.229 294.071 318.237C294.367 318.244 294.59 318.256 294.742 318.271V321.002C294.651 320.98 294.443 320.946 294.116 320.9C293.798 320.847 293.46 320.82 293.103 320.82C292.254 320.82 291.495 320.999 290.827 321.355C290.167 321.704 289.643 322.19 289.256 322.812C288.877 323.427 288.687 324.129 288.687 324.918V335.98H286.001ZM304.496 336.345C302.918 336.345 301.533 335.969 300.342 335.218C299.158 334.467 298.233 333.416 297.565 332.065C296.905 330.715 296.575 329.136 296.575 327.331C296.575 325.51 296.905 323.92 297.565 322.562C298.233 321.204 299.158 320.149 300.342 319.398C301.533 318.647 302.918 318.271 304.496 318.271C306.074 318.271 307.455 318.647 308.639 319.398C309.83 320.149 310.756 321.204 311.416 322.562C312.084 323.92 312.418 325.51 312.418 327.331C312.418 329.136 312.084 330.715 311.416 332.065C310.756 333.416 309.83 334.467 308.639 335.218C307.455 335.969 306.074 336.345 304.496 336.345ZM304.496 333.932C305.695 333.932 306.681 333.624 307.455 333.01C308.229 332.395 308.802 331.587 309.174 330.586C309.546 329.584 309.732 328.499 309.732 327.331C309.732 326.162 309.546 325.073 309.174 324.064C308.802 323.055 308.229 322.239 307.455 321.617C306.681 320.995 305.695 320.684 304.496 320.684C303.297 320.684 302.311 320.995 301.537 321.617C300.763 322.239 300.19 323.055 299.818 324.064C299.447 325.073 299.261 326.162 299.261 327.331C299.261 328.499 299.447 329.584 299.818 330.586C300.19 331.587 300.763 332.395 301.537 333.01C302.311 333.624 303.297 333.932 304.496 333.932ZM316.518 335.98V318.499H319.204V335.98H316.518ZM317.883 315.585C317.36 315.585 316.908 315.407 316.529 315.05C316.157 314.693 315.971 314.265 315.971 313.764C315.971 313.263 316.157 312.834 316.529 312.478C316.908 312.121 317.36 311.943 317.883 311.943C318.407 311.943 318.855 312.121 319.226 312.478C319.606 312.834 319.796 313.263 319.796 313.764C319.796 314.265 319.606 314.693 319.226 315.05C318.855 315.407 318.407 315.585 317.883 315.585ZM326.809 325.464V335.98H324.123V318.499H326.718V321.23H326.946C327.356 320.342 327.978 319.629 328.812 319.09C329.647 318.544 330.725 318.271 332.045 318.271C333.228 318.271 334.264 318.514 335.152 318.999C336.04 319.477 336.73 320.206 337.223 321.185C337.716 322.156 337.963 323.385 337.963 324.872V335.98H335.277V325.054C335.277 323.681 334.92 322.611 334.207 321.845C333.494 321.071 332.515 320.684 331.271 320.684C330.413 320.684 329.647 320.87 328.972 321.242C328.304 321.613 327.777 322.156 327.39 322.869C327.003 323.582 326.809 324.447 326.809 325.464ZM359.67 318.499V320.775H350.246V318.499H359.67ZM353.069 335.98V316.086C353.069 315.084 353.304 314.25 353.775 313.582C354.245 312.914 354.856 312.413 355.607 312.079C356.358 311.746 357.151 311.579 357.986 311.579C358.646 311.579 359.185 311.632 359.602 311.738C360.019 311.844 360.33 311.943 360.535 312.034L359.761 314.356C359.625 314.31 359.435 314.253 359.192 314.185C358.957 314.117 358.646 314.083 358.259 314.083C357.371 314.083 356.73 314.306 356.335 314.754C355.949 315.202 355.755 315.858 355.755 316.723V335.98H353.069ZM370.044 336.345C368.36 336.345 366.907 335.973 365.685 335.229C364.471 334.478 363.534 333.431 362.874 332.088C362.222 330.737 361.895 329.167 361.895 327.376C361.895 325.585 362.222 324.007 362.874 322.641C363.534 321.268 364.452 320.198 365.628 319.432C366.812 318.658 368.193 318.271 369.771 318.271C370.682 318.271 371.581 318.423 372.469 318.726C373.356 319.03 374.164 319.523 374.893 320.206C375.621 320.881 376.202 321.776 376.634 322.892C377.067 324.007 377.283 325.381 377.283 327.012V328.15H363.807V325.828H374.551C374.551 324.842 374.354 323.962 373.96 323.188C373.573 322.414 373.019 321.803 372.298 321.355C371.585 320.908 370.742 320.684 369.771 320.684C368.701 320.684 367.776 320.949 366.994 321.481C366.22 322.004 365.625 322.687 365.207 323.529C364.79 324.371 364.581 325.274 364.581 326.238V327.786C364.581 329.106 364.809 330.225 365.264 331.143C365.727 332.054 366.368 332.748 367.188 333.226C368.007 333.697 368.959 333.932 370.044 333.932C370.75 333.932 371.387 333.833 371.956 333.636C372.533 333.431 373.03 333.127 373.447 332.725C373.865 332.316 374.187 331.807 374.415 331.2L377.01 331.929C376.737 332.809 376.278 333.583 375.633 334.25C374.988 334.911 374.191 335.427 373.243 335.798C372.294 336.163 371.228 336.345 370.044 336.345ZM384.055 312.671V335.98H381.369V312.671H384.055ZM388.974 335.98V318.499H391.66V335.98H388.974ZM390.34 315.585C389.817 315.585 389.365 315.407 388.986 315.05C388.614 314.693 388.428 314.265 388.428 313.764C388.428 313.263 388.614 312.834 388.986 312.478C389.365 312.121 389.817 311.943 390.34 311.943C390.864 311.943 391.311 312.121 391.683 312.478C392.063 312.834 392.252 313.263 392.252 313.764C392.252 314.265 392.063 314.693 391.683 315.05C391.311 315.407 390.864 315.585 390.34 315.585ZM408.963 322.414L406.55 323.097C406.398 322.695 406.175 322.304 405.879 321.924C405.59 321.537 405.196 321.219 404.695 320.968C404.194 320.718 403.553 320.593 402.772 320.593C401.702 320.593 400.81 320.839 400.097 321.333C399.391 321.818 399.038 322.437 399.038 323.188C399.038 323.855 399.281 324.383 399.767 324.77C400.252 325.157 401.011 325.479 402.043 325.737L404.638 326.375C406.201 326.754 407.366 327.334 408.132 328.116C408.899 328.89 409.282 329.888 409.282 331.109C409.282 332.111 408.993 333.006 408.417 333.795C407.848 334.584 407.051 335.206 406.027 335.662C405.002 336.117 403.811 336.345 402.453 336.345C400.67 336.345 399.194 335.958 398.025 335.184C396.857 334.41 396.117 333.279 395.806 331.792L398.356 331.155C398.598 332.096 399.057 332.801 399.733 333.272C400.416 333.742 401.307 333.977 402.407 333.977C403.659 333.977 404.653 333.712 405.389 333.181C406.133 332.642 406.505 331.997 406.505 331.246C406.505 330.639 406.292 330.13 405.867 329.721C405.442 329.303 404.79 328.992 403.91 328.787L400.996 328.104C399.395 327.725 398.219 327.137 397.468 326.34C396.724 325.536 396.352 324.531 396.352 323.324C396.352 322.338 396.629 321.465 397.183 320.707C397.745 319.948 398.507 319.352 399.471 318.92C400.442 318.487 401.542 318.271 402.772 318.271C404.502 318.271 405.86 318.65 406.846 319.409C407.84 320.168 408.546 321.169 408.963 322.414ZM415.283 336.163C414.721 336.163 414.239 335.961 413.837 335.559C413.435 335.157 413.234 334.675 413.234 334.114C413.234 333.552 413.435 333.071 413.837 332.668C414.239 332.266 414.721 332.065 415.283 332.065C415.844 332.065 416.326 332.266 416.728 332.668C417.13 333.071 417.331 333.552 417.331 334.114C417.331 334.486 417.236 334.827 417.047 335.138C416.865 335.449 416.618 335.7 416.307 335.889C416.003 336.071 415.662 336.163 415.283 336.163Z" fill="#483F3F"/>
<circle cx="498.381" cy="438.311" r="11.0172" fill="#D9D9D9"/>
<circle cx="527.429" cy="438.31" r="11.0172" fill="#F7A22D"/>
<circle cx="557.472" cy="438.31" r="11.0172" fill="#D9D9D9"/>
</svg>
